<svg width="40" height="40" fill="none" xmlns="http://www.w3.org/2000/svg"><path d="M39.637 28.373l-5.528-5.528a15.683 15.683 0 001.672-7.064C35.781 7.08 28.701 0 20 0 11.298 0 4.219 7.08 4.219 15.781c0 2.538.603 4.937 1.672 7.064L.363 28.373a1.172 1.172 0 00.48 1.947l6.759 2.098 2.097 6.758a1.172 1.172 0 001.948.48l8.097-8.097c.086.002.17.004.256.004.085 0 .17-.002.256-.004l8.097 8.098a1.172 1.172 0 001.948-.481l2.097-6.758 6.758-2.098a1.172 1.172 0 00.481-1.947zM20 2.343c7.41 0 13.438 6.029 13.438 13.438 0 7.41-6.029 13.438-13.438 13.438-4.92 0-9.23-2.659-11.571-6.614a1.164 1.164 0 00-.153-.264 13.355 13.355 0 01-1.714-6.56c0-7.41 6.029-13.437 13.438-13.437zm-8.638 34.284l-1.705-5.493a1.172 1.172 0 00-.772-.772l-5.493-1.705 3.744-3.743a15.817 15.817 0 009.625 6.314l-5.399 5.399zm19.753-6.265a1.172 1.172 0 00-.772.772l-1.705 5.493-5.4-5.4a15.817 15.817 0 009.626-6.314l3.744 3.744-5.493 1.705z" fill="#B89A61"/><path d="M20 27.031c6.203 0 11.25-5.046 11.25-11.25 0-6.203-5.047-11.25-11.25-11.25S8.75 9.578 8.75 15.781c0 6.204 5.047 11.25 11.25 11.25zm0-20.156c4.91 0 8.906 3.995 8.906 8.906 0 4.911-3.995 8.906-8.906 8.906-4.91 0-8.906-3.995-8.906-8.906 0-4.91 3.995-8.906 8.906-8.906z" fill="#B89A61"/><path d="M13.691 14.958l1.94 2.442-.133 3.116a1.172 1.172 0 001.58 1.148L20 20.574l2.922 1.09a1.169 1.169 0 001.098-.15c.318-.23.5-.605.482-.998L24.37 17.4l1.94-2.442a1.172 1.172 0 00-.604-1.858l-3.005-.836-1.723-2.6a1.172 1.172 0 00-1.954 0l-1.723 2.6-3.005.836a1.172 1.172 0 00-.604 1.858zm4.658-.553c.271-.076.506-.247.662-.482l.989-1.49.989 1.49c.155.235.39.406.662.482l1.723.48-1.112 1.4c-.175.22-.265.497-.253.779l.076 1.787-1.676-.625a1.172 1.172 0 00-.818 0l-1.676.625.076-1.787a1.173 1.173 0 00-.253-.779l-1.112-1.4 1.723-.48z" fill="#B89A61"/></svg>