<svg width="405" height="71" fill="none" xmlns="http://www.w3.org/2000/svg"><path d="M109.32 59l-1.232 6.216h1.022v.364c-.187.15-.415.27-.686.364a2.28 2.28 0 01-.77.14c-.271 0-.467-.056-.588-.168-.121-.112-.182-.233-.182-.364 0-.168.023-.36.07-.574.056-.215.107-.43.154-.644l.308-1.582H104.7L104.028 66h-1.176l1.232-6.188-.854-.126-.014-.35c.131-.065.28-.126.448-.182a5.852 5.852 0 011.064-.28 3.01 3.01 0 01.462-.042l.28.168-.658 3.15h2.716l.616-3.15h1.176zm3.301 6.3c.252 0 .504-.117.756-.35.252-.243.49-.532.714-.868a9.08 9.08 0 00.602-1.05c.177-.364.317-.667.42-.91l.448-2.394a1.343 1.343 0 00-.378-.196 1.794 1.794 0 00-.504-.056c-.43 0-.822.135-1.176.406a3.542 3.542 0 00-.896 1.022 5.86 5.86 0 00-.77 2.912c0 .476.056.845.168 1.106.121.252.326.378.616.378zm2.212-2.044a7.702 7.702 0 01-.462 1.022 4.77 4.77 0 01-.63.938 3.2 3.2 0 01-.784.686c-.29.177-.598.266-.924.266-.971 0-1.456-.705-1.456-2.114 0-.653.093-1.288.28-1.904.186-.625.457-1.18.812-1.666a4.123 4.123 0 011.288-1.162 3.387 3.387 0 011.736-.448c.233 0 .42.023.56.07.14.037.308.098.504.182a2.494 2.494 0 011.176-.294l-1.26 6.398h1.022v.35c-.187.15-.411.27-.672.364-.262.093-.518.14-.77.14-.271 0-.467-.056-.588-.168a.555.555 0 01-.168-.378c0-.168.032-.443.098-.826.065-.383.163-.868.294-1.456h-.056zm6.974 2.086a19.868 19.868 0 01-.77-1.414c-.215-.448-.416-.868-.602-1.26l-.504-.14-.658 3.472h-1.204l1.218-6.188-.98-.126v-.35c.27-.121.597-.229.98-.322a5.53 5.53 0 011.078-.182l.294.154-.63 3.178h.406a6.76 6.76 0 00.63-.448c.224-.177.438-.36.644-.546.205-.187.392-.364.56-.532a4.02 4.02 0 00.378-.448c.009-.065.014-.154.014-.266a2.094 2.094 0 000-.336c0-.121-.005-.233-.014-.336a1.71 1.71 0 00-.014-.252 3.03 3.03 0 011.008-.182c.326 0 .602.06.826.182-.131.29-.332.588-.602.896-.262.299-.546.588-.854.868-.299.27-.593.518-.882.742-.29.224-.518.397-.686.518.065.177.172.41.322.7.158.28.326.574.504.882a49.75 49.75 0 001.036 1.624h.882v.35c-.187.15-.392.27-.616.364a1.71 1.71 0 01-.686.14c-.224 0-.42-.056-.588-.168-.159-.112-.322-.303-.49-.574zm3.22-1.946c0-.495.075-1.008.224-1.54a4.979 4.979 0 01.714-1.484 3.961 3.961 0 011.19-1.106c.476-.29 1.031-.434 1.666-.434.728 0 1.274.224 1.638.672.373.448.56 1.11.56 1.988 0 .616-.089 1.209-.266 1.778a5.027 5.027 0 01-.742 1.484c-.317.43-.7.775-1.148 1.036a2.976 2.976 0 01-1.484.378c-.719 0-1.293-.229-1.722-.686-.42-.467-.63-1.162-.63-2.086zm3.514-3.962c-.457.01-.831.159-1.12.448a3.1 3.1 0 00-.686 1.078c-.168.43-.285.891-.35 1.386-.065.495-.098.947-.098 1.358 0 .55.121.999.364 1.344.243.345.569.518.98.518.327 0 .616-.121.868-.364.261-.252.481-.579.658-.98.187-.41.327-.873.42-1.386a7.879 7.879 0 00.154-1.554c0-.55-.098-.994-.294-1.33-.187-.336-.485-.509-.896-.518zm8.439 2.576c.066-.29.122-.555.168-.798.056-.252.084-.5.084-.742a.938.938 0 00-.154-.546c-.093-.15-.247-.224-.462-.224-.252 0-.508.103-.77.308a4.239 4.239 0 00-.728.742c-.224.29-.429.593-.616.91a9.78 9.78 0 00-.406.77l-.742 3.57h-1.176l1.232-6.188-.854-.126.028-.35c.131-.065.276-.126.434-.182.168-.065.336-.121.504-.168a6.38 6.38 0 01.504-.112c.168-.028.322-.042.462-.042l.28.168-.532 2.478h.07c.178-.373.378-.719.602-1.036.234-.327.476-.607.728-.84.262-.243.532-.43.812-.56.28-.14.565-.21.854-.21.392 0 .677.126.854.378.187.243.28.55.28.924 0 .205-.023.462-.07.77a9.747 9.747 0 01-.168.868l-.798 3.444h1.036v.364c-.186.15-.415.27-.686.364a2.28 2.28 0 01-.77.14c-.27 0-.457-.056-.56-.168a.533.533 0 01-.154-.364c0-.177.024-.369.07-.574l.14-.644.504-2.324zm7.627-2.408h-1.638a29.355 29.355 0 01-.406 1.596c-.15.55-.322 1.092-.518 1.624a13.007 13.007 0 01-.63 1.498 5.56 5.56 0 01-.742 1.162c-.224.27-.462.453-.714.546-.252.103-.528.15-.826.14a1.087 1.087 0 01-.182-.364 1.47 1.47 0 01-.056-.504c0-.15.018-.294.056-.434.037-.14.102-.27.196-.392l1.148.476c.177-.224.359-.532.546-.924.196-.392.378-.821.546-1.288.177-.476.34-.966.49-1.47.149-.504.27-.98.364-1.428a4.63 4.63 0 01-.616-.196 1.754 1.754 0 01-.476-.28V59h4.69l-1.232 6.216h1.036v.364c-.187.15-.411.27-.672.364a2.37 2.37 0 01-.798.14c-.271 0-.467-.056-.588-.168a.508.508 0 01-.168-.364c0-.177.018-.369.056-.574.037-.215.079-.43.126-.644l1.008-4.732zm7.373 5.152c-.084.177-.205.35-.364.518a3.044 3.044 0 01-.56.462 2.87 2.87 0 01-.728.308 2.91 2.91 0 01-.868.126c-.774 0-1.372-.22-1.792-.658-.41-.448-.616-1.064-.616-1.848 0-.663.094-1.288.28-1.876a4.998 4.998 0 01.784-1.54 3.703 3.703 0 011.218-1.036 3.443 3.443 0 011.61-.378c.448 0 .831.117 1.148.35.327.224.49.56.49 1.008 0 .663-.331 1.185-.994 1.568-.653.383-1.712.63-3.178.742a4.587 4.587 0 00-.084.462c-.009.15-.014.294-.014.434 0 .56.14 1.017.42 1.372.29.355.71.532 1.26.532.178 0 .35-.028.518-.084.178-.056.341-.126.49-.21a2.95 2.95 0 00.42-.266c.131-.093.243-.177.336-.252l.224.266zm-1.47-5.32c-.401.01-.774.2-1.12.574-.345.364-.639.994-.882 1.89.906-.028 1.61-.182 2.114-.462.504-.29.756-.686.756-1.19a.91.91 0 00-.182-.546c-.112-.168-.34-.257-.686-.266zm9.41-.434l-1.232 6.216h1.022v.364c-.187.15-.416.27-.686.364-.262.093-.518.14-.77.14-.271 0-.467-.056-.588-.168-.122-.112-.182-.233-.182-.364 0-.168.023-.36.07-.574.056-.215.107-.43.154-.644l.308-1.582H155.3L154.628 66h-1.176l1.232-6.188-.854-.126-.014-.35c.13-.065.28-.126.448-.182a5.755 5.755 0 011.064-.28 3.01 3.01 0 01.462-.042l.28.168-.658 3.15h2.716l.616-3.15h1.176zm7.724 0l-1.232 6.216h1.022v.364c-.186.15-.415.27-.686.364a2.28 2.28 0 01-.77.14c-.27 0-.466-.056-.588-.168-.121-.112-.182-.233-.182-.364 0-.168.024-.36.07-.574.056-.215.108-.43.154-.644l.308-1.582h-2.716L162.352 66h-1.176l1.232-6.188-.854-.126-.014-.35c.131-.065.28-.126.448-.182.178-.065.355-.121.532-.168.187-.047.364-.084.532-.112.178-.028.332-.042.462-.042l.28.168-.658 3.15h2.716l.616-3.15h1.176zm2.853 4.13c-.084.252-.15.49-.196.714a3.937 3.937 0 00-.056.686c0 .327.056.583.168.77.112.177.308.266.588.266.261 0 .494-.075.7-.224a2.1 2.1 0 00.546-.56c.149-.233.261-.49.336-.77.084-.29.13-.574.14-.854a.971.971 0 00-.098-.406.76.76 0 00-.21-.266.695.695 0 00-.28-.154.93.93 0 00-.266-.042 1.29 1.29 0 00-.826.266 2.63 2.63 0 00-.546.574zm.126-.588c.252-.308.536-.57.854-.784.317-.224.7-.336 1.148-.336.14 0 .284.023.434.07.158.047.298.126.42.238.13.103.238.243.322.42.084.168.126.378.126.63 0 .42-.089.83-.266 1.232-.178.401-.42.765-.728 1.092a3.732 3.732 0 01-1.078.77 2.988 2.988 0 01-1.302.294 1.77 1.77 0 01-.588-.098 1.326 1.326 0 01-.476-.266 1.43 1.43 0 01-.336-.49 1.915 1.915 0 01-.112-.686c0-.299.037-.64.112-1.022.084-.392.186-.798.308-1.218.13-.43.27-.863.42-1.302l.434-1.274-.84-.126v-.35c.14-.065.298-.126.476-.182.186-.056.373-.107.56-.154a6.198 6.198 0 011.036-.168l.308.168c-.224.588-.444 1.157-.658 1.708-.206.55-.416 1.162-.63 1.834h.056zM177.049 59l-1.33 6.216h1.022v.364c-.187.15-.416.27-.686.364a2.25 2.25 0 01-.756.14c-.271 0-.467-.06-.588-.182a.574.574 0 01-.182-.42c0-.187.014-.369.042-.546.028-.177.065-.373.112-.588L175.859 59h1.19zm7.488 6.23v.35c-.187.15-.415.27-.686.364a2.28 2.28 0 01-.77.14c-.271 0-.467-.056-.588-.168a.508.508 0 01-.168-.364c0-.168.023-.448.07-.84.047-.401.149-.887.308-1.456h-.056c-.121.261-.275.56-.462.896a5.32 5.32 0 01-.644.952c-.252.299-.541.55-.868.756a1.916 1.916 0 01-1.064.308c-.327 0-.602-.112-.826-.336-.224-.233-.336-.56-.336-.98 0-.205.033-.509.098-.91s.145-.84.238-1.316c.093-.476.191-.961.294-1.456.112-.504.21-.957.294-1.358l-.854-.126v-.35c.149-.056.308-.112.476-.168.177-.056.35-.107.518-.154.177-.047.345-.084.504-.112.159-.037.303-.06.434-.07l.308.168c-.149.7-.303 1.367-.462 2.002a41.616 41.616 0 00-.42 1.988c-.047.224-.098.476-.154.756-.047.27-.07.57-.07.896a.71.71 0 00.154.476.505.505 0 00.378.182c.205 0 .411-.06.616-.182.205-.121.397-.28.574-.476.187-.196.359-.41.518-.644a8.99 8.99 0 00.448-.714c.131-.233.238-.448.322-.644.093-.205.163-.369.21-.49l.616-3.15h1.162l-1.148 6.23h1.036zm-2.058-7.07c-.42 0-.756-.06-1.008-.182a1.628 1.628 0 01-.574-.462 1.363 1.363 0 01-.252-.56 1.957 1.957 0 01-.014-.518c.149-.112.313-.2.49-.266.177-.065.364-.107.56-.126l.35.182v1.078a.891.891 0 00.21.126.995.995 0 00.364.056c.411 0 .77-.126 1.078-.378.308-.261.523-.57.644-.924a.59.59 0 01.266.07.457.457 0 01.224.154 2.3 2.3 0 01-.28.602c-.121.205-.28.392-.476.56a2.653 2.653 0 01-.686.42c-.261.112-.56.168-.896.168zm6.792 5.236c0-.495.075-1.008.224-1.54a4.979 4.979 0 01.714-1.484 3.973 3.973 0 011.19-1.106c.476-.29 1.032-.434 1.666-.434.728 0 1.274.224 1.638.672.374.448.56 1.11.56 1.988 0 .616-.088 1.209-.266 1.778a5.003 5.003 0 01-.742 1.484c-.317.43-.7.775-1.148 1.036a2.973 2.973 0 01-1.484.378c-.718 0-1.292-.229-1.722-.686-.42-.467-.63-1.162-.63-2.086zm3.514-3.962c-.457.01-.83.159-1.12.448a3.1 3.1 0 00-.686 1.078c-.168.43-.284.891-.35 1.386-.065.495-.098.947-.098 1.358 0 .55.122.999.364 1.344.243.345.57.518.98.518.327 0 .616-.121.868-.364.262-.252.481-.579.658-.98.187-.41.327-.873.42-1.386a7.879 7.879 0 00.154-1.554c0-.55-.098-.994-.294-1.33-.186-.336-.485-.509-.896-.518zm8.439 2.576c.066-.29.122-.555.168-.798.056-.252.084-.5.084-.742a.938.938 0 00-.154-.546c-.093-.15-.247-.224-.462-.224-.252 0-.508.103-.77.308a4.239 4.239 0 00-.728.742c-.224.29-.429.593-.616.91a9.78 9.78 0 00-.406.77l-.742 3.57h-1.176l1.232-6.188-.854-.126.028-.35c.131-.065.276-.126.434-.182.168-.065.336-.121.504-.168a6.38 6.38 0 01.504-.112c.168-.028.322-.042.462-.042l.28.168-.532 2.478h.07c.178-.373.378-.719.602-1.036.234-.327.476-.607.728-.84.262-.243.532-.43.812-.56.28-.14.565-.21.854-.21.392 0 .677.126.854.378.187.243.28.55.28.924 0 .205-.023.462-.07.77a9.747 9.747 0 01-.168.868l-.798 3.444h1.036v.364c-.186.15-.415.27-.686.364a2.28 2.28 0 01-.77.14c-.27 0-.457-.056-.56-.168a.533.533 0 01-.154-.364c0-.177.024-.369.07-.574l.14-.644.504-2.324zm4.519 1.12a6.46 6.46 0 00-.196.714 4.037 4.037 0 00-.056.686c0 .327.056.583.168.77.112.177.308.266.588.266.261 0 .495-.075.7-.224a2.07 2.07 0 00.546-.56c.149-.233.261-.49.336-.77a3.46 3.46 0 00.14-.854.956.956 0 00-.098-.406.76.76 0 00-.21-.266.689.689 0 00-.28-.154.924.924 0 00-.266-.042 1.29 1.29 0 00-.826.266 2.63 2.63 0 00-.546.574zm.126-.588c.252-.308.537-.57.854-.784.317-.224.7-.336 1.148-.336.14 0 .285.023.434.07.159.047.299.126.42.238.131.103.238.243.322.42.084.168.126.378.126.63 0 .42-.089.83-.266 1.232-.177.401-.42.765-.728 1.092a3.719 3.719 0 01-1.078.77 2.988 2.988 0 01-1.302.294 1.77 1.77 0 01-.588-.098 1.335 1.335 0 01-.476-.266 1.43 1.43 0 01-.336-.49 1.915 1.915 0 01-.112-.686c0-.299.037-.64.112-1.022.084-.392.187-.798.308-1.218.131-.43.271-.863.42-1.302l.434-1.274-.84-.126v-.35a4 4 0 01.476-.182c.187-.056.373-.107.56-.154a6.091 6.091 0 011.036-.168l.308.168a227.72 227.72 0 01-.658 1.708 41.77 41.77 0 00-.63 1.834h.056zM212.295 59l-1.33 6.216h1.022v.364c-.187.15-.415.27-.686.364-.261.093-.513.14-.756.14-.271 0-.467-.06-.588-.182a.578.578 0 01-.182-.42c0-.187.014-.369.042-.546.028-.177.065-.373.112-.588L211.105 59h1.19zm9.518 2.8c.056-.224.108-.457.154-.7a3.73 3.73 0 00.098-.602c-.009-.243-.051-.434-.126-.574-.065-.15-.205-.224-.42-.224-.224 0-.452.089-.686.266a3.83 3.83 0 00-.672.672 7.69 7.69 0 00-.574.882 9.348 9.348 0 00-.42.896L218.313 66h-1.12l.882-3.934c.066-.29.122-.565.168-.826.047-.27.07-.55.07-.84 0-.215-.037-.383-.112-.504-.074-.13-.205-.196-.392-.196-.186 0-.392.089-.616.266a4.112 4.112 0 00-.658.672c-.214.27-.415.565-.602.882a7.2 7.2 0 00-.434.91l-.742 3.57h-1.204l1.302-6.188-.854-.126v-.35c.308-.159.64-.28.994-.364.364-.093.677-.14.938-.14l.294.168-.616 2.478h.056c.112-.261.266-.546.462-.854.206-.308.439-.593.7-.854.262-.27.542-.495.84-.672.299-.177.598-.266.896-.266.112 0 .224.019.336.056.112.037.21.107.294.21a1.1 1.1 0 01.21.392c.056.168.084.383.084.644 0 .205-.023.425-.07.658a7.984 7.984 0 01-.14.686c.14-.317.318-.63.532-.938.215-.317.448-.602.7-.854.252-.252.518-.457.798-.616a1.82 1.82 0 01.882-.238c.355 0 .621.112.798.336.187.224.28.532.28.924 0 .299-.028.583-.084.854l-.182.854-.91 3.416h1.036v.364c-.186.15-.415.27-.686.364a2.36 2.36 0 01-.77.14c-.27 0-.457-.06-.56-.182a.653.653 0 01-.154-.434c0-.27.066-.644.196-1.12l.658-2.548zm11.088 2.954a2.85 2.85 0 01-.392.518 3.113 3.113 0 01-.56.462 2.9 2.9 0 01-.728.308 2.83 2.83 0 01-.868.126c-.691 0-1.237-.22-1.638-.658-.402-.439-.602-1.036-.602-1.792 0-.672.107-1.302.322-1.89a5.106 5.106 0 01.868-1.554 4.112 4.112 0 011.302-1.05 3.447 3.447 0 011.61-.392c.354 0 .644.028.868.084.224.056.392.135.504.238.009.103 0 .22-.028.35a1.373 1.373 0 01-.112.364 1.228 1.228 0 01-.196.336.617.617 0 01-.238.21l-.952-.98c-.318.01-.635.107-.952.294a2.937 2.937 0 00-.84.798 4.62 4.62 0 00-.602 1.26c-.15.485-.22 1.036-.21 1.652-.01.644.116 1.115.378 1.414.27.299.634.448 1.092.448.196 0 .378-.028.546-.084a2.61 2.61 0 00.49-.21 3.48 3.48 0 00.406-.266c.121-.093.228-.177.322-.252l.21.266zM243.614 66h-4.964l.102-.493c.306-.136.612-.25.918-.34.318-.09.635-.17.952-.238l1.768-8.347.323-1.003a5.12 5.12 0 01-1.054.272 7.29 7.29 0 01-1.105.051v-.408c.556-.17 1.139-.38 1.751-.629a8.555 8.555 0 001.751-.969h.425l-2.329 11.033a6.146 6.146 0 011.564.578l-.102.493zm3.527-7.514c0-.533.09-1.077.272-1.632.192-.555.481-1.06.867-1.513a4.418 4.418 0 011.445-1.105c.589-.295 1.286-.442 2.091-.442.396 0 .782.057 1.156.17.385.102.725.283 1.02.544.294.26.532.606.714 1.037.181.42.272.94.272 1.564 0 .918-.187 1.853-.561 2.805a9.563 9.563 0 01-1.632 2.669 11.433 11.433 0 01-2.567 2.21c-.998.635-2.125 1.105-3.383 1.411l-.068-.493c1.507-.544 2.765-1.292 3.774-2.244 1.008-.963 1.768-2.165 2.278-3.604-.272.329-.658.618-1.156.867a3.82 3.82 0 01-1.666.357c-.998 0-1.723-.238-2.176-.714-.454-.476-.68-1.105-.68-1.887zm1.632-.153c0 .6.136 1.065.408 1.394.272.317.748.476 1.428.476.51 0 .98-.13 1.411-.391.43-.272.776-.578 1.037-.918.034-.09.068-.21.102-.357.034-.159.062-.317.085-.476a3.59 3.59 0 00.068-.459 2.55 2.55 0 00.034-.357c0-.351-.029-.686-.085-1.003a2.597 2.597 0 00-.289-.85 1.45 1.45 0 00-.561-.578c-.227-.147-.516-.221-.867-.221-.488 0-.907.13-1.258.391a3.1 3.1 0 00-.867.935 4.82 4.82 0 00-.493 1.224c-.102.43-.153.827-.153 1.19zm7.764.153c0-.533.091-1.077.272-1.632.193-.555.482-1.06.867-1.513a4.418 4.418 0 011.445-1.105c.589-.295 1.286-.442 2.091-.442.397 0 .782.057 1.156.17.385.102.725.283 1.02.544.295.26.533.606.714 1.037.181.42.272.94.272 1.564 0 .918-.187 1.853-.561 2.805a9.563 9.563 0 01-1.632 2.669 11.403 11.403 0 01-2.567 2.21c-.997.635-2.125 1.105-3.383 1.411l-.068-.493c1.507-.544 2.765-1.292 3.774-2.244 1.009-.963 1.768-2.165 2.278-3.604-.272.329-.657.618-1.156.867a3.82 3.82 0 01-1.666.357c-.997 0-1.723-.238-2.176-.714-.453-.476-.68-1.105-.68-1.887zm1.632-.153c0 .6.136 1.065.408 1.394.272.317.748.476 1.428.476.51 0 .98-.13 1.411-.391a3.931 3.931 0 001.037-.918c.034-.09.068-.21.102-.357.034-.159.062-.317.085-.476a3.42 3.42 0 00.068-.459c.023-.147.034-.266.034-.357 0-.351-.028-.686-.085-1.003a2.597 2.597 0 00-.289-.85 1.45 1.45 0 00-.561-.578c-.227-.147-.516-.221-.867-.221-.487 0-.907.13-1.258.391-.351.25-.64.561-.867.935-.215.374-.38.782-.493 1.224-.102.43-.153.827-.153 1.19zm6.45 5.355c0-.839.295-1.575.884-2.21.601-.635 1.468-1.116 2.601-1.445-.555-.397-.975-.81-1.258-1.241a2.71 2.71 0 01-.408-1.479c0-.476.085-.924.255-1.343.181-.42.436-.782.765-1.088a3.449 3.449 0 011.207-.714 4.517 4.517 0 011.615-.272c.963 0 1.677.21 2.142.629.465.42.697.98.697 1.683 0 .34-.074.674-.221 1.003a3.33 3.33 0 01-.595.935 4.454 4.454 0 01-.952.799 5.993 5.993 0 01-1.241.595c.317.215.601.43.85.646.249.204.459.43.629.68.181.238.317.504.408.799.102.295.153.635.153 1.02a3.237 3.237 0 01-1.088 2.414c-.363.329-.822.595-1.377.799-.544.204-1.179.306-1.904.306-.997 0-1.774-.227-2.329-.68-.555-.465-.833-1.077-.833-1.836zm6.069-.748a1.84 1.84 0 00-.17-.799 2.561 2.561 0 00-.459-.663 4.157 4.157 0 00-.697-.612 15.093 15.093 0 00-.884-.578c-.499.26-.907.538-1.224.833-.306.295-.55.59-.731.884-.17.295-.289.584-.357.867a3.6 3.6 0 00-.085.731c0 .544.17.986.51 1.326.34.329.799.493 1.377.493.487 0 .901-.074 1.241-.221.351-.159.635-.357.85-.595a2.31 2.31 0 00.476-.799 2.64 2.64 0 00.153-.867zm-2.788-5.916c0 .227.051.448.153.663.113.215.255.425.425.629.17.193.363.374.578.544.227.17.459.323.697.459.68-.51 1.167-1.02 1.462-1.53.306-.51.453-1.003.442-1.479.011-.453-.108-.833-.357-1.139-.249-.317-.674-.476-1.275-.476-.34 0-.646.062-.918.187a1.957 1.957 0 00-.663.51 2.19 2.19 0 00-.408.748 2.872 2.872 0 00-.136.884zm9.058 7.66c0-.317.089-.607.266-.868a3.73 3.73 0 01.658-.728c.271-.233.56-.448.868-.644.308-.205.593-.406.854-.602a3.91 3.91 0 00.672-.602c.178-.205.266-.42.266-.644a1.23 1.23 0 00-.154-.63c-.093-.177-.303-.266-.63-.266-.326 0-.639.089-.938.266a3.41 3.41 0 00-.7.518l-.21-.238c.075-.14.187-.29.336-.448.15-.168.327-.322.532-.462.215-.15.444-.27.686-.364a2.25 2.25 0 01.784-.14c.542 0 .943.135 1.204.406.271.261.406.565.406.91 0 .345-.088.653-.266.924-.177.27-.401.523-.672.756a8.827 8.827 0 01-.854.644 13.06 13.06 0 00-.868.602c-.261.196-.48.406-.658.63a1.079 1.079 0 00-.266.7c0 .243.08.453.238.63.159.177.434.266.826.266.346 0 .668-.075.966-.224.308-.159.579-.331.812-.518l.196.21a3.204 3.204 0 01-.462.504 3.31 3.31 0 01-.63.462c-.233.13-.49.233-.77.308-.28.084-.574.126-.882.126a1.718 1.718 0 01-1.134-.42 1.416 1.416 0 01-.35-.462 1.45 1.45 0 01-.126-.602zm5.805-1.288c0-.495.075-1.008.224-1.54a4.979 4.979 0 01.714-1.484 3.973 3.973 0 011.19-1.106c.476-.29 1.032-.434 1.666-.434.728 0 1.274.224 1.638.672.374.448.56 1.11.56 1.988 0 .616-.088 1.209-.266 1.778a5.003 5.003 0 01-.742 1.484c-.317.43-.7.775-1.148 1.036a2.973 2.973 0 01-1.484.378c-.718 0-1.292-.229-1.722-.686-.42-.467-.63-1.162-.63-2.086zm3.514-3.962c-.457.01-.83.159-1.12.448a3.1 3.1 0 00-.686 1.078c-.168.43-.284.891-.35 1.386-.065.495-.098.947-.098 1.358 0 .55.122.999.364 1.344.243.345.57.518.98.518.327 0 .616-.121.868-.364.262-.252.481-.579.658-.98.187-.41.327-.873.42-1.386a7.879 7.879 0 00.154-1.554c0-.55-.098-.994-.294-1.33-.186-.336-.485-.509-.896-.518zm3.442 4.214c0-.57.093-1.134.28-1.694.196-.57.471-1.078.826-1.526a4.443 4.443 0 011.302-1.092 3.535 3.535 0 011.722-.42c.168 0 .336.019.504.056.168.037.303.093.406.168 0-.29-.028-.607-.084-.952a3.638 3.638 0 00-.266-.966 1.942 1.942 0 00-.518-.742 1.196 1.196 0 00-.84-.308c-.346 0-.63.033-.854.098a3.7 3.7 0 00-.644.266l-.183-.266c.103-.112.239-.215.407-.308a3.29 3.29 0 01.546-.266 3 3 0 01.63-.182c.224-.047.443-.07.658-.07.364 0 .69.08.98.238.298.159.55.401.756.728.214.327.378.742.49 1.246.121.504.182 1.106.182 1.806a9.71 9.71 0 01-.35 2.66c-.224.812-.528 1.521-.91 2.128-.383.597-.836 1.069-1.358 1.414a2.92 2.92 0 01-1.624.504c-.672 0-1.186-.22-1.541-.658-.345-.448-.517-1.069-.517-1.862zm3.99-4.13c-.514.01-.943.154-1.288.434-.346.28-.626.63-.84 1.05-.215.42-.369.873-.462 1.358-.094.485-.14.938-.14 1.358 0 .215.014.43.042.644.028.215.084.415.168.602.084.177.2.322.35.434.149.112.345.168.588.168.308 0 .616-.145.924-.434.317-.299.602-.705.854-1.218a8.63 8.63 0 00.616-1.834c.158-.7.238-1.456.238-2.268a2.271 2.271 0 00-.546-.224 2.861 2.861 0 00-.504-.07zm5.195 5.782c.252 0 .504-.117.756-.35.252-.243.49-.532.714-.868a9.08 9.08 0 00.602-1.05c.177-.364.317-.667.42-.91l.448-2.394a1.343 1.343 0 00-.378-.196 1.794 1.794 0 00-.504-.056c-.43 0-.822.135-1.176.406a3.542 3.542 0 00-.896 1.022 5.86 5.86 0 00-.77 2.912c0 .476.056.845.168 1.106.121.252.326.378.616.378zm2.212-2.044a7.702 7.702 0 01-.462 1.022 4.77 4.77 0 01-.63.938 3.2 3.2 0 01-.784.686c-.29.177-.598.266-.924.266-.971 0-1.456-.705-1.456-2.114 0-.653.093-1.288.28-1.904.186-.625.457-1.18.812-1.666a4.123 4.123 0 011.288-1.162 3.387 3.387 0 011.736-.448c.233 0 .42.023.56.07.14.037.308.098.504.182a2.494 2.494 0 011.176-.294l-1.26 6.398h1.022v.35c-.187.15-.411.27-.672.364-.262.093-.518.14-.77.14-.271 0-.467-.056-.588-.168a.555.555 0 01-.168-.378c0-.168.032-.443.098-.826.065-.383.163-.868.294-1.456h-.056z" fill="#A98D57"/><path transform="matrix(1 0 0 -1 238 43)" stroke="url(#paint0_linear_98_693)" d="M0-.5h128"/><path d="M195.431 45.622a8.218 8.218 0 002.834-1.005c2.149-1.258 6.694-3.988 9.211-4.81.574-.215 1.264-.314 1.814-.375 1.238-.14 2.531-.077 3.696.465-1.357-.893-3.074-.998-4.698-.83-1.175.18-1.717.393-2.825.814-2.61 1.063-5.208 2.649-7.621 4.096-.774.457-1.611.903-2.552 1.078-1.166.19-2.528.012-3.244-.802-.783-.855-.198-2.233.2-2.701.398-.468 2.022-1.572 3.156-.149-.706-2.024-2.448-1.14-3.357-.486-.892.642-1.547 2.514-.53 3.775.889 1.102 2.495 1.133 3.916.93z" fill="#B89A61"/><path d="M213.958 42.58c-1.433-7.812-15.963 4.546-19.638 4.396 3.239.49 12.746-6.67 16.603-6.413.91.048 1.826.795 2.132 1.724.085.258.165.578.159.85-.037 1.206-1.128 2.104-2.291 2.5-1.354.45-1.561 0-2.248-.984.256 3.602 5.863.975 5.283-2.074z" fill="#B89A61"/><path stroke="url(#paint1_linear_98_693)" d="M167 43.5H39"/><path d="M7.155 8.5h5.625v.725c-.183.1-.408.2-.675.3-.267.1-.592.2-.975.3V11.1a5.07 5.07 0 011.075-.15 26.55 26.55 0 011.025-.025c.8 0 1.542.142 2.225.425.7.267 1.3.667 1.8 1.2a5.29 5.29 0 011.2 1.9c.283.75.425 1.6.425 2.55 0 1.067-.175 1.992-.525 2.775a5.893 5.893 0 01-1.4 1.975 5.813 5.813 0 01-1.95 1.175c-.717.25-1.45.375-2.2.375h-.35a4.298 4.298 0 00-.475-.025 43.467 43.467 0 01-.475-.05 3.866 3.866 0 01-.375-.1v1.55c.333.083.633.175.9.275.267.083.517.192.75.325V26H7.155v-.725c.25-.133.525-.242.825-.325.3-.1.617-.183.95-.25v-1.525a9.47 9.47 0 01-1.05.1c-.367.017-.717.025-1.05.025a6.513 6.513 0 01-2.025-.325A5.496 5.496 0 012.98 21.9c-.533-.483-.967-1.108-1.3-1.875-.333-.767-.5-1.692-.5-2.775 0-1 .167-1.892.5-2.675.333-.8.783-1.467 1.35-2a5.942 5.942 0 011.95-1.225 6.595 6.595 0 012.35-.425c.217 0 .483.008.8.025.333.017.6.042.8.075v-1.2c-.75-.167-1.342-.367-1.775-.6V8.5zm5.325 3.6a9.8 9.8 0 00-.7.025 3.41 3.41 0 00-.675.125v9.8c.167.033.375.058.625.075h.575c.55 0 1.075-.1 1.575-.3.517-.2.967-.5 1.35-.9.4-.417.717-.95.95-1.6.233-.65.35-1.425.35-2.325 0-1.533-.358-2.733-1.075-3.6-.7-.867-1.692-1.3-2.975-1.3zM7.755 22.125h.55c.2-.017.417-.058.65-.125v-9.825c-.4-.05-.8-.075-1.2-.075-.533 0-1.05.1-1.55.3-.5.2-.95.517-1.35.95-.4.417-.725.95-.975 1.6-.233.633-.35 1.4-.35 2.3 0 .783.108 1.483.325 2.1.217.6.508 1.108.875 1.525.383.4.833.708 1.35.925a4.286 4.286 0 001.675.325zm22.353.6c0 .367.009.683.025.95.017.267.034.55.05.85l1.725.25v.525a9.067 9.067 0 01-1.4.575c-.5.167-.983.292-1.45.375h-.625a3.817 3.817 0 01-.3-1.25 37.534 37.534 0 01-.075-1.525h-.125c-.066.333-.2.675-.4 1.025a3.178 3.178 0 01-.75.9c-.3.267-.658.483-1.075.65-.416.167-.891.25-1.425.25-1.016 0-1.85-.308-2.5-.925-.633-.617-.95-1.425-.95-2.425 0-.767.15-1.392.45-1.875.317-.5.775-.892 1.375-1.175.6-.283 1.342-.483 2.225-.6a33.787 33.787 0 013.075-.3c.067-.717.084-1.358.05-1.925-.016-.583-.108-1.075-.275-1.475-.15-.417-.383-.733-.7-.95-.3-.233-.7-.35-1.2-.35-.233 0-.5.017-.8.05a2.628 2.628 0 00-.85.2l-1.175 3h-.65a21 21 0 01-.45-1.55 10.532 10.532 0 01-.225-1.575 8.495 8.495 0 012.1-.9c.784-.217 1.65-.325 2.6-.325.85 0 1.525.125 2.025.375.517.233.909.542 1.175.925.267.383.442.808.525 1.275.084.467.125.933.125 1.4 0 1-.025 1.967-.075 2.9-.033.917-.05 1.8-.05 2.65zm-4.825 2.025c.417 0 .784-.083 1.1-.25.317-.167.584-.367.8-.6a3.83 3.83 0 00.525-.7c.134-.25.225-.458.275-.625V19.95c-.966 0-1.758.05-2.375.15-.616.1-1.1.258-1.45.475-.35.217-.591.492-.725.825-.133.317-.2.683-.2 1.1 0 .717.184 1.275.55 1.675.367.383.867.575 1.5.575zm8.222-5.3c0-2.133.175-3.917.526-5.35.35-1.45.875-2.608 1.575-3.475a5.804 5.804 0 012.7-1.875c1.083-.367 2.35-.55 3.8-.55l1.624-1.25h.65c-.016.3-.05.625-.1.975-.05.333-.116.658-.2.975-.066.3-.141.567-.224.8-.067.233-.126.4-.175.5-1.534 0-2.834.075-3.9.225-1.067.15-1.95.458-2.65.925s-1.234 1.142-1.6 2.025c-.35.883-.584 2.05-.7 3.5h.124c.2-.433.467-.85.8-1.25.35-.4.742-.75 1.175-1.05.45-.3.925-.542 1.425-.725a4.4 4.4 0 011.526-.275c3.4 0 5.1 2.042 5.1 6.125 0 .967-.134 1.858-.4 2.675a5.904 5.904 0 01-1.175 2.075 5.527 5.527 0 01-1.875 1.375c-.734.317-1.559.475-2.475.475-.834 0-1.592-.15-2.275-.45a4.948 4.948 0 01-1.75-1.35c-.484-.6-.859-1.317-1.125-2.15-.267-.85-.4-1.817-.4-2.9zm2.35 0c0 1.05.092 1.942.276 2.675.2.717.466 1.308.8 1.775.333.45.716.783 1.15 1 .45.2.916.3 1.4.3 1 0 1.75-.45 2.25-1.35.516-.9.774-2.183.774-3.85 0-1.7-.325-2.942-.974-3.725-.65-.783-1.55-1.175-2.7-1.175-.434 0-.909.133-1.425.4-.5.267-.925.625-1.276 1.075a14.19 14.19 0 00-.275 2.875zM52.331 31h-5.55v-.625a9.023 9.023 0 011.65-.6V14.95l-1.65-.2v-.65a9.821 9.821 0 011.625-.55c.566-.15 1.117-.267 1.65-.35h.625V16h.025c.333-.85.8-1.525 1.4-2.025.6-.517 1.383-.775 2.35-.775 1.483 0 2.633.492 3.45 1.475.816.983 1.225 2.583 1.225 4.8 0 1.05-.142 2-.425 2.85-.267.85-.659 1.567-1.175 2.15a5.02 5.02 0 01-1.85 1.35c-.717.317-1.517.475-2.4.475-.617 0-1.1-.042-1.45-.125a5.403 5.403 0 01-1.15-.375v3.975c.267.033.533.092.8.175.267.1.55.242.85.425V31zm1.325-16.25c-.817 0-1.467.258-1.95.775-.484.517-.825 1.225-1.025 2.125v7c.3.183.633.325 1 .425.383.083.875.125 1.475.125a2.64 2.64 0 001.475-.425c.45-.283.825-.683 1.125-1.2a6.265 6.265 0 00.725-1.8c.166-.7.25-1.467.25-2.3a9.32 9.32 0 00-.175-1.875c-.1-.583-.275-1.083-.525-1.5a2.5 2.5 0 00-.95-1c-.384-.233-.859-.35-1.425-.35zm7.485-1.25h5.3v.65c-.183.1-.4.2-.65.3-.233.1-.517.2-.85.3v6.85l-.275 2.325h.125l.975-1.875 5.35-8.55h3.375v.65c-.533.3-1.083.5-1.65.6v10.025c.317.083.617.175.9.275.283.083.533.192.75.325V26h-5.3v-.625a5.883 5.883 0 011.5-.6v-7.15l.25-1.975h-.125l-.95 1.875-5.3 8.475h-3.425v-.625c.283-.133.558-.242.825-.325.267-.1.542-.192.825-.275V14.75c-.65-.1-1.2-.3-1.65-.6v-.65zm22.458 0h4.825v.65c-.167.133-.392.25-.675.35-.267.1-.6.217-1 .35a63.641 63.641 0 01-1.8 2.075c-.634.7-1.3 1.4-2 2.1.366.4.75.842 1.15 1.325.416.483.833.983 1.25 1.5.416.517.833 1.025 1.25 1.525.416.5.825.967 1.225 1.4l1.175.6V26h-2.925l-.8-.575c-.75-.9-1.434-1.8-2.05-2.7a109.36 109.36 0 00-1.875-2.65h-1v4.7c.333.083.633.175.9.275.283.083.525.192.725.325V26h-5.525v-.625c.45-.267 1-.467 1.65-.6V14.75a5.763 5.763 0 01-1.65-.6v-.65h5.125v.65a4.34 4.34 0 01-.55.325c-.184.1-.409.192-.675.275v4.675l1.15-.25c.666-.767 1.3-1.483 1.9-2.15a18.33 18.33 0 001.675-2.175 84.49 84.49 0 00-.8-.325 8.809 8.809 0 01-.675-.375v-.65zm15.65 9.225c0 .367.008.683.025.95.017.267.033.55.05.85l1.725.25v.525a9.067 9.067 0 01-1.4.575c-.5.167-.983.292-1.45.375h-.625a3.822 3.822 0 01-.3-1.25 37.534 37.534 0 01-.075-1.525h-.125a3.43 3.43 0 01-.4 1.025 3.178 3.178 0 01-.75.9c-.3.267-.658.483-1.075.65-.417.167-.892.25-1.425.25-1.017 0-1.85-.308-2.5-.925-.633-.617-.95-1.425-.95-2.425 0-.767.15-1.392.45-1.875.317-.5.775-.892 1.375-1.175.6-.283 1.342-.483 2.225-.6a33.794 33.794 0 013.075-.3c.067-.717.083-1.358.05-1.925-.017-.583-.108-1.075-.275-1.475-.15-.417-.383-.733-.7-.95-.3-.233-.7-.35-1.2-.35-.233 0-.5.017-.8.05a2.629 2.629 0 00-.85.2l-1.175 3h-.65c-.167-.5-.317-1.017-.45-1.55a10.558 10.558 0 01-.225-1.575 8.499 8.499 0 012.1-.9c.783-.217 1.65-.325 2.6-.325.85 0 1.525.125 2.025.375.517.233.908.542 1.175.925s.442.808.525 1.275c.083.467.125.933.125 1.4 0 1-.025 1.967-.075 2.9-.033.917-.05 1.8-.05 2.65zm-4.825 2.025c.417 0 .783-.083 1.1-.25a2.96 2.96 0 00.8-.6 3.83 3.83 0 00.525-.7c.133-.25.225-.458.275-.625V19.95c-.967 0-1.758.05-2.375.15-.617.1-1.1.258-1.45.475-.35.217-.592.492-.725.825-.133.317-.2.683-.2 1.1 0 .717.183 1.275.55 1.675.367.383.867.575 1.5.575zM114.75 26h-6.325v-.725c.667-.3 1.35-.5 2.05-.6V9.85a32.095 32.095 0 01-1.025-.275c-.35-.1-.691-.217-1.025-.35V8.5h6.325v.725c-.266.133-.55.25-.85.35-.3.1-.641.192-1.025.275V20.7l-.275 1.875 1.2-1.975 7.325-10.15v-.6c-.383-.083-.75-.175-1.1-.275a18.783 18.783 0 01-.925-.35V8.5h6.35v.725c-.3.133-.625.25-.975.35-.35.1-.708.192-1.075.275v14.825c.784.133 1.467.333 2.05.6V26h-6.35v-.725c.267-.117.559-.225.875-.325a6.163 6.163 0 011.025-.275V13.85l.25-1.875-1.1 1.875-7.425 10.275v.55c.384.067.742.15 1.075.25.35.1.667.217.95.35V26zm17.782 0h-5.375v-.625c.233-.133.491-.242.775-.325.283-.1.575-.192.875-.275V14.75c-.3-.083-.592-.167-.875-.25a4.7 4.7 0 01-.775-.35v-.65h5.375v.65c-.384.233-.875.433-1.475.6v4.375h5.55V14.75c-.584-.1-1.084-.3-1.5-.6v-.65h5.4v.65c-.45.283-1 .483-1.65.6v10.025c.3.067.591.142.875.225.283.083.541.208.775.375V26h-5.4v-.625c.416-.3.916-.5 1.5-.6v-4.55h-5.55v4.55c.333.067.616.15.85.25.233.1.441.217.625.35V26zm11.207 0l-1.125 3.7h-.65a60.047 60.047 0 01-.2-2.475c-.033-.833-.05-1.65-.05-2.45h1.7c.2-.233.425-.6.675-1.1.25-.5.484-1.142.7-1.925.234-.8.425-1.75.575-2.85.167-1.117.25-2.417.25-3.9-.35-.1-.666-.225-.95-.375a6.915 6.915 0 01-.775-.475v-.65h10.625v.65c-.45.3-1 .5-1.65.6v10.025h2.225c.017.8 0 1.617-.05 2.45-.05.833-.125 1.658-.225 2.475h-.625l-1.125-3.7h-9.325zm3.25-11.25c0 1.5-.075 2.808-.225 3.925-.15 1.117-.333 2.075-.55 2.875-.2.783-.416 1.442-.65 1.975-.233.517-.441.933-.625 1.25h5.675V14.75h-3.625zm9.806-1.25h5.3v.65c-.183.1-.4.2-.65.3-.233.1-.516.2-.85.3v6.85l-.275 2.325h.125l.975-1.875 5.35-8.55h3.375v.65c-.533.3-1.083.5-1.65.6v10.025c.317.083.617.175.9.275.284.083.534.192.75.325V26h-5.3v-.625a5.891 5.891 0 011.5-.6v-7.15l.25-1.975h-.125l-.95 1.875-5.3 8.475h-3.425v-.625c.284-.133.559-.242.825-.325.267-.1.542-.192.825-.275V14.75c-.65-.1-1.2-.3-1.65-.6v-.65zm26.358 8.85c0 .667-.15 1.242-.45 1.725-.3.467-.708.85-1.225 1.15-.5.3-1.083.525-1.75.675-.667.133-1.367.2-2.1.2-.533 0-.958-.008-1.275-.025a10.687 10.687 0 01-1.35-.075h-2.9v-.625a6.974 6.974 0 011.65-.6V14.75c-.633-.117-1.183-.317-1.65-.6v-.65h3.275c.283-.017.55-.033.8-.05s.5-.025.75-.025c.25-.017.525-.025.825-.025 1.467 0 2.608.225 3.425.675.817.433 1.225 1.2 1.225 2.3 0 .4-.083.758-.25 1.075a2.85 2.85 0 01-.65.825 4.255 4.255 0 01-.9.6 4.77 4.77 0 01-.975.325c.467.033.908.125 1.325.275.433.15.808.358 1.125.625.333.25.592.567.775.95.2.367.3.8.3 1.3zm-7.15 2.575c.233.05.525.075.875.075h.9c.983 0 1.717-.208 2.2-.625.483-.433.725-1.042.725-1.825 0-.817-.292-1.425-.875-1.825-.583-.417-1.333-.625-2.25-.625h-1.575v4.825zm0-5.575l2.775-.25c.3-.15.6-.425.9-.825.317-.417.475-.958.475-1.625 0-.817-.25-1.375-.75-1.675-.483-.317-1.2-.475-2.15-.475-.183 0-.392.008-.625.025a2.38 2.38 0 00-.625.075v4.75zm9.308-5.85h5.3v.65c-.183.1-.4.2-.65.3-.233.1-.517.2-.85.3v6.85l-.275 2.325h.125l.975-1.875 5.35-8.55h3.375v.65c-.533.3-1.083.5-1.65.6v10.025c.317.083.617.175.9.275.283.083.533.192.75.325V26h-5.3v-.625a5.891 5.891 0 011.5-.6v-7.15l.25-1.975h-.125l-.95 1.875-5.3 8.475h-3.425v-.625c.283-.133.558-.242.825-.325.267-.1.542-.192.825-.275V14.75c-.65-.1-1.2-.3-1.65-.6v-.65zM201.894 26l-1.125 3.7h-.65a58.348 58.348 0 01-.2-2.475c-.034-.833-.05-1.65-.05-2.45h1.7c.2-.233.425-.6.675-1.1.25-.5.483-1.142.7-1.925.233-.8.425-1.75.575-2.85.166-1.117.25-2.417.25-3.9-.35-.1-.667-.225-.95-.375a6.738 6.738 0 01-.775-.475v-.65h10.625v.65c-.45.3-1 .5-1.65.6v10.025h2.225c.016.8 0 1.617-.05 2.45-.05.833-.125 1.658-.225 2.475h-.625l-1.125-3.7h-9.325zm3.25-11.25c0 1.5-.075 2.808-.225 3.925-.15 1.117-.334 2.075-.55 2.875-.2.783-.417 1.442-.65 1.975a14.69 14.69 0 01-.625 1.25h5.675V14.75h-3.625zm9.881 0a4.31 4.31 0 01-.7-.25 8.05 8.05 0 01-.625-.35v-.65h5.225v.625c-.35.233-.825.442-1.425.625l3.2 7.4.475 1.55h.05l.375-1.575 2.375-7.375a3.5 3.5 0 01-1.375-.6v-.65h4.275v.65c-.35.233-.825.433-1.425.6L221.55 26c-.4 1.067-.784 1.925-1.15 2.575-.35.667-.709 1.192-1.075 1.575-.35.383-.717.658-1.1.825a4.628 4.628 0 01-1.2.4 7.603 7.603 0 01-.5-1.05c-.134-.383-.25-.75-.35-1.1l.325-.6h2.6c.1-.133.183-.267.25-.4.083-.117.166-.267.25-.45.083-.183.175-.417.275-.7.1-.283.216-.642.35-1.075l-5.2-11.25zm21.822 7.975c0 .367.008.683.025.95l.05.85 1.725.25v.525a9.109 9.109 0 01-1.4.575c-.5.167-.984.292-1.45.375h-.625a3.802 3.802 0 01-.3-1.25 35.156 35.156 0 01-.075-1.525h-.125a3.44 3.44 0 01-.4 1.025 3.202 3.202 0 01-.75.9c-.3.267-.659.483-1.075.65-.417.167-.892.25-1.425.25-1.017 0-1.85-.308-2.5-.925-.634-.617-.95-1.425-.95-2.425 0-.767.15-1.392.45-1.875.316-.5.775-.892 1.375-1.175.6-.283 1.341-.483 2.225-.6a33.765 33.765 0 013.075-.3c.066-.717.083-1.358.05-1.925-.017-.583-.109-1.075-.275-1.475-.15-.417-.384-.733-.7-.95-.3-.233-.7-.35-1.2-.35-.234 0-.5.017-.8.05a2.622 2.622 0 00-.85.2l-1.175 3h-.65c-.167-.5-.317-1.017-.45-1.55a10.455 10.455 0 01-.225-1.575 8.486 8.486 0 012.1-.9c.783-.217 1.65-.325 2.6-.325.85 0 1.525.125 2.025.375.516.233.908.542 1.175.925.266.383.441.808.525 1.275.083.467.125.933.125 1.4 0 1-.025 1.967-.075 2.9-.034.917-.05 1.8-.05 2.65zm-4.825 2.025a2.33 2.33 0 001.1-.25 2.99 2.99 0 00.8-.6c.216-.233.391-.467.525-.7.133-.25.225-.458.275-.625V19.95c-.967 0-1.759.05-2.375.15-.617.1-1.1.258-1.45.475-.35.217-.592.492-.725.825-.134.317-.2.683-.2 1.1 0 .717.183 1.275.55 1.675.366.383.866.575 1.5.575zm9.772-.9c.233-.4.441-.933.625-1.6.183-.667.333-1.4.45-2.2.133-.8.233-1.633.3-2.5.066-.883.1-1.733.1-2.55a5.08 5.08 0 01-.925-.375 8.137 8.137 0 01-.75-.475v-.65h10.225v.65c-.534.3-1.084.5-1.65.6v10.025c.35.083.658.175.925.275.266.1.508.208.725.325V26h-5.375v-.625c.4-.283.891-.483 1.475-.6V14.6h-3.3a44.637 44.637 0 01-.15 2.825 34.754 34.754 0 01-.375 2.925 21.5 21.5 0 01-.65 2.7c-.267.833-.592 1.533-.975 2.1-.317.483-.659.817-1.025 1-.367.2-.709.267-1.025.2a5.452 5.452 0 01-.725-1.1c-.217-.467-.342-.892-.375-1.275l.35-.625 2.125.5zm15.874-5.25c.283-.033.6-.075.95-.125s.858-.075 1.525-.075c1.367 0 2.442.292 3.225.875.783.583 1.175 1.5 1.175 2.75 0 .667-.133 1.258-.4 1.775-.25.5-.6.925-1.05 1.275-.45.333-.992.592-1.625.775a8.136 8.136 0 01-2.075.25c-.45 0-.958-.017-1.525-.05-.55-.033-1.142-.05-1.775-.05h-2.325v-.625c.25-.133.517-.242.8-.325.283-.1.567-.192.85-.275V14.75a6.035 6.035 0 01-1.65-.6v-.65h5.4v.65c-.4.233-.9.433-1.5.6v3.85zm0 6.325l.65.05c.217.017.442.025.675.025.967 0 1.717-.242 2.25-.725.55-.483.825-1.242.825-2.275 0-.467-.075-.858-.225-1.175a1.902 1.902 0 00-.6-.775 2.25 2.25 0 00-.9-.425 4.424 4.424 0 00-1.075-.125c-.267 0-.542.008-.825.025a3.94 3.94 0 00-.775.075v5.325zM271.838 26h-5.375v-.625c.234-.133.492-.242.775-.325.284-.1.575-.192.875-.275V14.75c-.3-.083-.591-.167-.875-.25a4.777 4.777 0 01-.775-.35v-.65h5.375v.65c-.383.233-.875.433-1.475.6v4.375h5.55V14.75c-.583-.1-1.083-.3-1.5-.6v-.65h5.4v.65c-.45.283-1 .483-1.65.6v10.025c.3.067.592.142.875.225.284.083.542.208.775.375V26h-5.4v-.625c.417-.3.917-.5 1.5-.6v-4.55h-5.55v4.55c.334.067.617.15.85.25.234.1.442.217.625.35V26zm9.983-6.25c0-1.05.133-1.975.4-2.775.283-.817.683-1.5 1.2-2.05a4.917 4.917 0 011.85-1.275c.733-.3 1.542-.45 2.425-.45 1.033 0 1.925.158 2.675.475.75.317 1.358.767 1.825 1.35.483.567.833 1.25 1.05 2.05.233.8.35 1.692.35 2.675 0 2.1-.533 3.717-1.6 4.85-1.067 1.133-2.5 1.7-4.3 1.7-1 0-1.867-.15-2.6-.45a4.92 4.92 0 01-1.825-1.325 6.035 6.035 0 01-1.1-2.075c-.233-.817-.35-1.717-.35-2.7zm2.4 0c0 .75.067 1.458.2 2.125.15.667.375 1.25.675 1.75.317.483.725.867 1.225 1.15.5.283 1.1.425 1.8.425.9 0 1.633-.442 2.2-1.325.583-.883.875-2.258.875-4.125 0-.767-.075-1.475-.225-2.125-.133-.667-.35-1.242-.65-1.725-.3-.5-.683-.892-1.15-1.175-.467-.283-1.025-.425-1.675-.425-.983 0-1.775.442-2.375 1.325-.6.883-.9 2.258-.9 4.125zm11.368-6.25h5.3v.65c-.183.1-.4.2-.65.3-.233.1-.516.2-.85.3v6.85l-.275 2.325h.125l.975-1.875 5.35-8.55h3.375v.65c-.533.3-1.083.5-1.65.6v10.025c.317.083.617.175.9.275.284.083.534.192.75.325V26h-5.3v-.625a5.891 5.891 0 011.5-.6v-7.15l.25-1.975h-.125l-.95 1.875-5.3 8.475h-3.425v-.625c.284-.133.559-.242.825-.325.267-.1.542-.192.825-.275V14.75c-.65-.1-1.2-.3-1.65-.6v-.65zm6.925-1.5c-.833 0-1.516-.083-2.05-.25-.533-.183-.958-.417-1.275-.7a2.414 2.414 0 01-.675-.975 3.954 3.954 0 01-.175-1.15c.267-.217.559-.375.875-.475.317-.1.65-.167 1-.2l.625.325V10.8c.234.1.509.175.825.225.317.033.609.05.875.05.167 0 .434-.017.8-.05a4.95 4.95 0 00.9-.15v-2.3l.625-.325a3.6 3.6 0 01.975.225c.317.117.575.267.775.45 0 .383-.066.767-.2 1.15a2.394 2.394 0 01-.675.975c-.3.283-.716.517-1.25.7-.516.167-1.175.25-1.975.25zm34.412 14h-6.2v-.725a7.758 7.758 0 011-.325c.333-.1.675-.192 1.025-.275v-11.25l.1-2.925h-.2l-.825 2.675L326.701 26h-.65l-4.875-12.825-.9-2.925h-.225l.025 3.175v11.25c.317.067.633.15.95.25.317.1.633.217.95.35V26h-5.225v-.725c.317-.133.642-.25.975-.35.35-.117.7-.208 1.05-.275V9.85c-.35-.067-.7-.15-1.05-.25a24.376 24.376 0 01-1-.375V8.5h5.125l4.35 11.425.85 2.575h.025l.85-2.625 4.5-11.375h4.525v.725c-.3.133-.608.258-.925.375a9.32 9.32 0 01-.975.25V24.7c.35.067.675.15.975.25.317.083.617.192.9.325V26zm11.905-1.75c-.134.283-.342.55-.625.8a4.55 4.55 0 01-.975.65 5.389 5.389 0 01-1.2.425 5.077 5.077 0 01-1.325.175c-.984 0-1.85-.15-2.6-.45a5.106 5.106 0 01-1.875-1.325 6.112 6.112 0 01-1.15-2.075c-.25-.8-.375-1.7-.375-2.7 0-2.133.491-3.758 1.475-4.875.983-1.117 2.375-1.675 4.175-1.675.583 0 1.158.083 1.725.25.566.15 1.066.408 1.5.775.45.367.808.858 1.075 1.475.283.6.425 1.35.425 2.25 0 .283-.017.575-.05.875a6.931 6.931 0 01-.125.925h-7.8c0 .7.083 1.358.25 1.975.183.6.45 1.125.8 1.575.35.45.791.808 1.325 1.075.533.25 1.158.375 1.875.375a6.6 6.6 0 001.775-.25c.6-.167 1.05-.383 1.35-.65l.35.4zm-4.575-9.95c-.95 0-1.675.325-2.175.975-.5.633-.8 1.758-.9 3.375h5.5c.016-.15.025-.292.025-.425.016-.15.025-.292.025-.425 0-1.067-.2-1.917-.6-2.55-.4-.633-1.025-.95-1.875-.95zm7.023 5.15c0-2.133.175-3.917.525-5.35.35-1.45.875-2.608 1.575-3.475a5.808 5.808 0 012.7-1.875c1.083-.367 2.35-.55 3.8-.55l1.625-1.25h.65c-.017.3-.05.625-.1.975-.05.333-.117.658-.2.975a6.85 6.85 0 01-.225.8 3.23 3.23 0 01-.175.5c-1.533 0-2.833.075-3.9.225-1.067.15-1.95.458-2.65.925s-1.233 1.142-1.6 2.025c-.35.883-.583 2.05-.7 3.5h.125c.2-.433.467-.85.8-1.25.35-.4.742-.75 1.175-1.05.45-.3.925-.542 1.425-.725a4.398 4.398 0 011.525-.275c3.4 0 5.1 2.042 5.1 6.125 0 .967-.133 1.858-.4 2.675a5.903 5.903 0 01-1.175 2.075 5.533 5.533 0 01-1.875 1.375c-.733.317-1.558.475-2.475.475-.833 0-1.592-.15-2.275-.45a4.949 4.949 0 01-1.75-1.35c-.483-.6-.858-1.317-1.125-2.15-.267-.85-.4-1.817-.4-2.9zm2.35 0c0 1.05.092 1.942.275 2.675.2.717.467 1.308.8 1.775.333.45.717.783 1.15 1 .45.2.917.3 1.4.3 1 0 1.75-.45 2.25-1.35.517-.9.775-2.183.775-3.85 0-1.7-.325-2.942-.975-3.725-.65-.783-1.55-1.175-2.7-1.175-.433 0-.908.133-1.425.4-.5.267-.925.625-1.275 1.075a14.19 14.19 0 00-.275 2.875zm21.3 4.8c-.133.283-.341.55-.625.8a4.5 4.5 0 01-.975.65 5.353 5.353 0 01-1.2.425 5.071 5.071 0 01-1.325.175c-.983 0-1.85-.15-2.6-.45a5.106 5.106 0 01-1.875-1.325 6.129 6.129 0 01-1.15-2.075c-.25-.8-.375-1.7-.375-2.7 0-2.133.492-3.758 1.475-4.875.984-1.117 2.375-1.675 4.175-1.675.584 0 1.159.083 1.725.25.567.15 1.067.408 1.5.775.45.367.809.858 1.075 1.475.284.6.425 1.35.425 2.25 0 .283-.016.575-.05.875a6.618 6.618 0 01-.125.925h-7.8c0 .7.084 1.358.25 1.975.184.6.45 1.125.8 1.575.35.45.792.808 1.325 1.075.534.25 1.159.375 1.875.375.584 0 1.175-.083 1.775-.25.6-.167 1.05-.383 1.35-.65l.35.4zm-4.575-9.95c-.95 0-1.675.325-2.175.975-.5.633-.8 1.758-.9 3.375h5.5c.017-.15.025-.292.025-.425.017-.15.025-.292.025-.425 0-1.067-.2-1.917-.6-2.55-.4-.633-1.025-.95-1.875-.95zm8.134 9.55c.233-.4.442-.933.625-1.6s.333-1.4.45-2.2c.133-.8.233-1.633.3-2.5.067-.883.1-1.733.1-2.55a5.11 5.11 0 01-.925-.375 8.137 8.137 0 01-.75-.475v-.65h10.225v.65c-.533.3-1.083.5-1.65.6v10.025c.35.083.658.175.925.275.267.1.508.208.725.325V26h-5.375v-.625c.4-.283.892-.483 1.475-.6V14.6h-3.3a44.637 44.637 0 01-.15 2.825 33.948 33.948 0 01-.375 2.925c-.167.95-.383 1.85-.65 2.7-.267.833-.592 1.533-.975 2.1-.317.483-.658.817-1.025 1-.367.2-.708.267-1.025.2a5.452 5.452 0 01-.725-1.1c-.217-.467-.342-.892-.375-1.275l.35-.625 2.125.5zm11.974-10.35h5.3v.65c-.183.1-.4.2-.65.3-.233.1-.516.2-.85.3v6.85l-.275 2.325h.125l.975-1.875 5.35-8.55h3.375v.65c-.533.3-1.083.5-1.65.6v10.025c.317.083.617.175.9.275.284.083.534.192.75.325V26h-5.3v-.625a5.891 5.891 0 011.5-.6v-7.15l.25-1.975h-.125l-.95 1.875-5.3 8.475h-3.425v-.625c.284-.133.559-.242.825-.325.267-.1.542-.192.825-.275V14.75c-.65-.1-1.2-.3-1.65-.6v-.65z" fill="#B89A61"/><defs><linearGradient id="paint0_linear_98_693" x1="0" y1="0" x2="123.52" y2="0" gradientUnits="userSpaceOnUse"><stop stop-color="#B89A61"/><stop offset="1" stop-color="#B89A61" stop-opacity="0"/></linearGradient><linearGradient id="paint1_linear_98_693" x1="167" y1="43" x2="43.48" y2="43" gradientUnits="userSpaceOnUse"><stop stop-color="#B89A61"/><stop offset="1" stop-color="#B89A61" stop-opacity="0"/></linearGradient></defs></svg>