<svg width="40" height="40" fill="none" xmlns="http://www.w3.org/2000/svg"><g clip-path="url(#clip0_344_3128)" fill="#B89A61"><path d="M38.828 4.112c-.647 0-1.172.524-1.172 1.171v3.52h-4.093a6.664 6.664 0 00-3.706-7.008 1.579 1.579 0 00-1.529.093 1.59 1.59 0 00-.744 1.35v3.31a2.686 2.686 0 01-1.107 0v-3.31a1.59 1.59 0 00-.744-1.35 1.578 1.578 0 00-1.529-.093A6.663 6.663 0 0020.5 8.803h-2.732V5.461a2.42 2.42 0 00-2.41-2.422H9.553a2.42 2.42 0 00-2.41 2.421v3.342h-4.8v-3.52a1.172 1.172 0 10-2.343 0v28.432a4.805 4.805 0 004.798 4.801h30.404a4.805 4.805 0 004.798-4.8V5.283c0-.647-.525-1.171-1.172-1.171zm-8.894 11.336h7.722v5.686h-7.722v-5.686zm2.803-4.3h4.92v1.956h-6.672a6.561 6.561 0 001.752-1.957zm-8.604-6.502V7.25c0 .664.465 1.221 1.086 1.364a5.098 5.098 0 003.764-.056c.574-.24.945-.799.945-1.423V4.646a4.316 4.316 0 011.367 3.142 4.262 4.262 0 01-2.404 3.858 2.343 2.343 0 00-1.301 2.097v7.391h-1.292l.01-7.471c0-.875-.476-1.668-1.244-2.07a4.28 4.28 0 01-2.298-3.805c0-1.205.512-2.341 1.367-3.142zm-8.737 10.802h8.565l-.006 5.686h-8.56v-5.686zm7.683-2.344h-7.684v-.015l1.573-1.42c.17-.154.317-.33.435-.522h3.926a6.598 6.598 0 001.75 1.957zM9.486 5.461c0-.043.03-.079.068-.079h5.802c.037 0 .068.036.068.08v4.405c0 .025-.01.048-.027.063l-1.706 1.54a1.942 1.942 0 00-.64 1.44v8.224h-1.193v-8.225c0-.547-.233-1.072-.64-1.438L9.514 9.93a.083.083 0 01-.027-.063V5.461zm-7.142 9.987h7.17v5.686h-7.17v-5.686zm5.163-4.3c.118.191.264.367.435.521l1.572 1.42v.015h-7.17v-1.957h5.163zm27.695 25.025H4.798a2.459 2.459 0 01-2.454-2.458V23.478h35.312v10.237a2.459 2.459 0 01-2.454 2.457z"/><path d="M24.912 30.96a1.158 1.158 0 01-1.156-1.155 1.145 1.145 0 011.15-1.15h.002a1.172 1.172 0 000-2.344h-.002a3.47 3.47 0 00-2.47 1.023 3.475 3.475 0 00-.823 1.3l-3.88-.003a3.506 3.506 0 00-3.294-2.327 1.172 1.172 0 00-.001 2.344 1.156 1.156 0 01.818 1.968 1.142 1.142 0 01-.813.337h-.002a1.172 1.172 0 000 2.344h.002a3.47 3.47 0 002.47-1.023c.373-.373.652-.817.823-1.3l3.88.003a3.506 3.506 0 003.294 2.327 1.172 1.172 0 00.002-2.344z"/></g><defs><clipPath id="clip0_344_3128"><path fill="#fff" d="M0 0h40v40H0z"/></clipPath></defs></svg>